Coordinates
version=1
nRows=8
nColumns=63
inDegrees=yes

Units are S.I. units (second, meters, Newtons, ...)
If the header above contains a line with 'inDegrees', this indicates whether rotational values are in degrees (yes) or radians (no).

endheader
time	pelvis_tilt	pelvis_list	pelvis_rotation	pelvis_tx	pelvis_ty	pelvis_tz	hip_flexion_r	hip_adduction_r	hip_rotation_r	knee_angle_r	knee_angle_r_beta	ankle_angle_r	subtalar_angle_r	mtp_angle_r	hip_flexion_l	hip_adduction_l	hip_rotation_l	knee_angle_l	knee_angle_l_beta	ankle_angle_l	subtalar_angle_l	mtp_angle_l	L5_S1_Flex_Ext	L5_S1_Lat_Bending	L5_S1_axial_rotation	L4_L5_Flex_Ext	L4_L5_Lat_Bending	L4_L5_axial_rotation	L3_L4_Flex_Ext	L3_L4_Lat_Bending	L3_L4_axial_rotation	L2_L3_Flex_Ext	L2_L3_Lat_Bending	L2_L3_axial_rotation	L1_L2_Flex_Ext	L1_L2_Lat_Bending	L1_L2_axial_rotation	L1_T12_Flex_Ext	L1_T12_Lat_Bending	L1_T12_axial_rotation	Abs_r3	Abs_r2	Abs_r1	Abs_t1	Abs_t2	neck_flexion	neck_bending	neck_rotation	arm_flex_r	arm_add_r	arm_rot_r	elbow_flex_r	pro_sup_r	wrist_flex_r	wrist_dev_r	arm_flex_l	arm_add_l	arm_rot_l	elbow_flex_l	pro_sup_l	wrist_flex_l	wrist_dev_l
      2.83333333	     -3.23013610	      0.28735464	    105.40687561	      0.21690259	      0.98745060	      0.48751020	     -4.97547169	     -2.17521151	    -24.93390841	      5.88896533	      0.10278183	     19.57455066	     14.64267963	      0.00000000	     -2.59068915	      2.91334708	     -3.87103658	      4.23155357	      0.07385454	     21.99765300	     10.04873928	      0.00000000	     -0.00656020	     -0.47597871	     -1.65300337	     -0.01218294	     -0.63305168	     -1.75631609	     -0.01077775	     -1.15729463	     -1.75631609	     -0.00749765	     -1.15729463	     -1.44637795	     -0.00609180	     -0.97061578	     -1.34306524	     -0.00374850	     -0.73729102	     -1.23975253	     -0.04685884	     -5.38436633	     -9.19350887	      0.00000000	      0.00000000	     22.12446216	      5.65003314	      7.20884339	     22.09659301	     11.64638843	    199.71347182	      0.26031910	     74.84854016	    -61.71844173	    -18.28406037	     15.02474127	    -12.78888194	     63.68626177	     46.71784479	     86.08411756	     25.02133393	     16.89187761
      2.85000000	     -3.16167236	      0.21266587	    105.28418442	      0.21713356	      0.98714044	      0.48824800	     -4.80713840	     -2.14590687	    -24.74247731	      5.95836062	      0.10399301	     19.53292871	     14.50003676	      0.00000000	     -2.44132731	      2.88169590	     -3.54073387	      4.35324227	      0.07597841	     21.81654072	      9.33601212	      0.00000000	     -0.00478699	     -0.46889898	     -1.65320514	     -0.00888992	     -0.62363564	     -1.75653046	     -0.00786454	     -1.14008097	     -1.75653046	     -0.00547105	     -1.14008097	     -1.44655450	     -0.00444520	     -0.95617879	     -1.34322918	     -0.00273529	     -0.72632451	     -1.23990385	     -0.03419298	     -5.30427899	     -9.19463102	      0.00000000	      0.00000000	     22.19678265	      5.34751281	      7.33290282	     22.07877654	     11.59589335	    199.64768657	      0.25702177	     73.99362709	    -61.65639638	    -18.21454358	     15.03850783	    -12.82569759	     63.44923857	     46.76688472	     86.14250874	     25.08043887	     16.82429620
      2.86666667	     -3.12711919	      0.14130503	    105.14754636	      0.21740665	      0.98687417	      0.48879187	     -4.65346013	     -2.15578618	    -24.50732379	      6.07215860	      0.10597916	     19.48858412	     14.25664587	      0.00000000	     -2.30919230	      2.86043557	     -3.64489545	      4.48726408	      0.07831753	     21.51759702	      9.11328978	      0.00000000	     -0.00207473	     -0.46805434	     -1.62671286	     -0.00385298	     -0.62251227	     -1.72838242	     -0.00340857	     -1.13802732	     -1.72838242	     -0.00237121	     -1.13802732	     -1.42337376	     -0.00192659	     -0.95445641	     -1.32170420	     -0.00118550	     -0.72501617	     -1.22003465	     -0.01481958	     -5.29472429	     -9.04728894	      0.00000000	      0.00000000	     22.28943464	      5.00457212	      7.21312428	     22.08412990	     11.53343668	    199.49520106	      0.26067615	     73.09177535	    -61.57770827	    -18.36784358	     15.17207916	    -12.84040789	     63.54930949	     46.75424120	     86.21206360	     25.04310416	     16.70891935
      2.88333333	     -3.15142559	      0.06532372	    104.78567566	      0.21803310	      0.98661678	      0.48907748	     -4.47885427	     -2.25241836	    -23.91547349	      6.23967907	      0.10890294	     19.48972720	     13.86131377	      0.00000000	     -2.25293123	      2.91710617	     -3.71736489	      4.50578619	      0.07864080	     21.10202166	      8.49898464	      0.00000000	      0.00252697	     -0.47559232	     -1.54777874	      0.00469284	     -0.63253779	     -1.64451491	      0.00415156	     -1.15635517	     -1.64451491	      0.00288808	     -1.15635517	     -1.35430640	      0.00234655	     -0.96982786	     -1.25757023	      0.00144391	     -0.73669250	     -1.16083406	      0.01804990	     -5.37999544	     -8.60828103	      0.00000000	      0.00000000	     22.39021764	      4.79026240	      7.04951541	     22.09429039	     11.47626905	    198.65756410	      0.26974805	     72.16065784	    -61.32437532	    -19.25068468	     15.32335972	    -12.84925393	     63.70909944	     46.71557669	     86.15962107	     25.14566771	     16.73162849
      2.90000000	     -3.18705215	      0.00679880	    104.80877399	      0.21821417	      0.98644578	      0.48943916	     -4.41694925	     -2.32594068	    -24.08962263	      6.33038396	      0.11048604	     19.55001435	     13.97051225	      0.00000000	     -2.14337114	      2.94146710	     -3.90199099	      4.60563174	      0.08038344	     20.87520264	      8.49399823	      0.00000000	      0.00275298	     -0.48344215	     -1.56787013	      0.00511256	     -0.64297805	     -1.66586202	      0.00452287	     -1.17544123	     -1.66586202	      0.00314638	     -1.17544123	     -1.37188637	      0.00255642	     -0.98583522	     -1.27389448	      0.00157305	     -0.74885188	     -1.17590260	      0.01966427	     -5.46879424	     -8.72002331	      0.00000000	      0.00000000	     22.42379037	      4.76227182	      7.06359358	     22.18602548	     11.53958760	    200.19784405	      0.27317033	     70.26393396	    -61.01641114	    -19.24490449	     15.30782774	    -12.96620759	     63.59859695	     46.82122049	     86.24248065	     24.96190997	     16.78899810
      2.91666667	     -3.24877918	     -0.04910657	    104.42216247	      0.21885022	      0.98630319	      0.48962529	     -4.26669343	     -2.44997804	    -23.35001904	      6.46516541	      0.11283842	     19.65368457	     13.50416774	      0.00000000	     -2.11231094	      3.02387058	     -4.40136620	      4.57221900	      0.07980028	     20.68687143	      8.38820497	      0.00000000	      0.00459034	     -0.49333652	     -1.49700898	      0.00852473	     -0.65613757	     -1.59057204	      0.00754147	     -1.19949842	     -1.59057204	      0.00524630	     -1.19949842	     -1.30988286	      0.00426259	     -1.00601184	     -1.21631980	      0.00262292	     -0.76417827	     -1.12275674	      0.03278836	     -5.58072140	     -8.32591485	      0.00000000	      0.00000000	     22.32598151	      5.09393492	      7.01524527	     22.22623185	     11.54424907	    200.00859078	      0.27935499	     68.98357691	    -60.54580660	    -20.06950354	     15.36668418	    -12.96179143	     63.61941298	     46.71869915	     86.12054599	     24.99233025	     16.80721523
      2.93333333	     -3.34344537	     -0.12457995	    104.49838038	      0.21905619	      0.98631262	      0.48986786	     -4.17982146	     -2.60063857	    -23.88928260	      6.56204322	      0.11452926	     19.92123051	     14.16795530	      0.00000000	     -1.94100901	      3.02890343	     -6.11770363	      4.75345920	      0.08296351	     20.90441151	     10.61769690	      0.00000000	      0.00466900	     -0.51023757	     -1.51061838	      0.00867081	     -0.67861597	     -1.60503203	      0.00767071	     -1.24059164	     -1.60503203	      0.00533620	     -1.24059164	     -1.32179108	      0.00433564	     -1.04047646	     -1.22737743	      0.00266787	     -0.79035800	     -1.13296378	      0.03335023	     -5.77190949	     -8.40160623	      0.00000000	      0.00000000	     22.08916086	      5.74882190	      7.02771846	     22.22078155	     11.64194487	    200.13922000	      0.28186297	     67.25824816	    -59.46678894	    -20.85161699	     15.36159753	    -13.07753915	     63.58739275	     46.78515147	     86.03666960	     24.77490646	     16.99483586
      2.95000000	     -3.33586102	     -0.21856792	    104.35192336	      0.21918469	      0.98626260	      0.48987081	     -3.98591993	     -2.64770580	    -23.47381046	      6.66890651	      0.11639438	     20.16876532	     13.88524704	      0.00000000	     -1.86285590	      3.07723881	     -5.91821702	      4.67795984	      0.08164580	     20.74428931	      9.96546586	      0.00000000	      0.01237351	     -0.51140520	     -1.44459920	      0.02297885	     -0.68016892	     -1.53488665	      0.02032844	     -1.24343061	     -1.53488665	      0.01414169	     -1.24343061	     -1.26402430	      0.01149004	     -1.04285749	     -1.17373685	      0.00707022	     -0.79216666	     -1.08344940	      0.08838275	     -5.78511792	     -8.03442739	      0.00000000	      0.00000000	     21.78723075	      6.31879774	      6.79241944	     22.08471052	     11.55873052	    199.67445308	      0.28422169	     66.20299401	    -59.01791746	    -21.17446770	     15.42351422	    -12.92527498	     63.66252321	     46.51771251	     85.89327102	     24.81225809	     16.90866883
